<mxfile host="app.diagrams.net" modified="2024-02-16T13:01:13.478Z" agent="Mozilla/5.0 (Windows NT 10.0; Win64; x64) AppleWebKit/537.36 (KHTML, like Gecko) Chrome/121.0.0.0 Safari/537.36" etag="ea7V9hzU5iHKspeYbq90" version="22.1.21" type="github" pages="2">
  <diagram name="Page-1" id="n2BPxvurVojcQvGW_dSC">
    <mxGraphModel dx="1105" dy="549" grid="1" gridSize="10" guides="1" tooltips="1" connect="1" arrows="1" fold="1" page="1" pageScale="1" pageWidth="850" pageHeight="1100" math="0" shadow="0">
      <root>
        <mxCell id="0" />
        <mxCell id="1" parent="0" />
        <mxCell id="POsNqCVVr4HfNaQNB7_T-1" value="User" style="shape=umlActor;verticalLabelPosition=bottom;verticalAlign=top;html=1;outlineConnect=0;" vertex="1" parent="1">
          <mxGeometry x="295" y="220" width="30" height="60" as="geometry" />
        </mxCell>
        <mxCell id="POsNqCVVr4HfNaQNB7_T-2" value="Login/Logout" style="ellipse;whiteSpace=wrap;html=1;" vertex="1" parent="1">
          <mxGeometry x="250" y="60" width="120" height="80" as="geometry" />
        </mxCell>
        <mxCell id="POsNqCVVr4HfNaQNB7_T-6" value="" style="endArrow=block;html=1;rounded=0;endFill=0;entryX=0.5;entryY=0;entryDx=0;entryDy=0;entryPerimeter=0;" edge="1" parent="1" target="POsNqCVVr4HfNaQNB7_T-7">
          <mxGeometry width="50" height="50" relative="1" as="geometry">
            <mxPoint x="340" y="290" as="sourcePoint" />
            <mxPoint x="270" y="230" as="targetPoint" />
          </mxGeometry>
        </mxCell>
        <mxCell id="POsNqCVVr4HfNaQNB7_T-7" value="Admin" style="shape=umlActor;verticalLabelPosition=bottom;verticalAlign=top;html=1;outlineConnect=0;" vertex="1" parent="1">
          <mxGeometry x="350" y="320" width="30" height="60" as="geometry" />
        </mxCell>
        <mxCell id="POsNqCVVr4HfNaQNB7_T-8" value="QLHT" style="shape=umlActor;verticalLabelPosition=bottom;verticalAlign=top;html=1;outlineConnect=0;" vertex="1" parent="1">
          <mxGeometry x="240" y="330" width="30" height="60" as="geometry" />
        </mxCell>
        <mxCell id="POsNqCVVr4HfNaQNB7_T-10" value="" style="endArrow=block;html=1;rounded=0;endFill=0;entryX=0.5;entryY=0;entryDx=0;entryDy=0;entryPerimeter=0;" edge="1" parent="1" target="POsNqCVVr4HfNaQNB7_T-8">
          <mxGeometry width="50" height="50" relative="1" as="geometry">
            <mxPoint x="290" y="290" as="sourcePoint" />
            <mxPoint x="220.0000000000001" y="350" as="targetPoint" />
          </mxGeometry>
        </mxCell>
        <mxCell id="POsNqCVVr4HfNaQNB7_T-14" value="" style="endArrow=none;html=1;rounded=0;entryX=0.5;entryY=1;entryDx=0;entryDy=0;exitX=0.5;exitY=0;exitDx=0;exitDy=0;exitPerimeter=0;" edge="1" parent="1" source="POsNqCVVr4HfNaQNB7_T-1" target="POsNqCVVr4HfNaQNB7_T-2">
          <mxGeometry width="50" height="50" relative="1" as="geometry">
            <mxPoint x="270" y="270" as="sourcePoint" />
            <mxPoint x="590" y="270" as="targetPoint" />
            <Array as="points">
              <mxPoint x="310" y="220" />
            </Array>
          </mxGeometry>
        </mxCell>
        <mxCell id="POsNqCVVr4HfNaQNB7_T-23" value="Xem danh sách Admin, QLHT" style="ellipse;whiteSpace=wrap;html=1;" vertex="1" parent="1">
          <mxGeometry x="390" y="120" width="120" height="80" as="geometry" />
        </mxCell>
        <mxCell id="POsNqCVVr4HfNaQNB7_T-24" value="Xem danh sách SV" style="ellipse;whiteSpace=wrap;html=1;" vertex="1" parent="1">
          <mxGeometry x="60" y="220" width="120" height="80" as="geometry" />
        </mxCell>
        <mxCell id="POsNqCVVr4HfNaQNB7_T-25" value="Tạo tài khoản Admin hoặc QLHT" style="ellipse;whiteSpace=wrap;html=1;" vertex="1" parent="1">
          <mxGeometry x="490" y="370" width="120" height="80" as="geometry" />
        </mxCell>
        <mxCell id="POsNqCVVr4HfNaQNB7_T-26" value="Tạo tài khoản QLHT" style="ellipse;whiteSpace=wrap;html=1;" vertex="1" parent="1">
          <mxGeometry x="40" y="430" width="120" height="80" as="geometry" />
        </mxCell>
        <mxCell id="POsNqCVVr4HfNaQNB7_T-27" value="Sửa, xóa Admin hoặc QLHT" style="ellipse;whiteSpace=wrap;html=1;" vertex="1" parent="1">
          <mxGeometry x="390" y="450" width="120" height="80" as="geometry" />
        </mxCell>
        <mxCell id="POsNqCVVr4HfNaQNB7_T-28" value="Sửa, xóa QLHT" style="ellipse;whiteSpace=wrap;html=1;" vertex="1" parent="1">
          <mxGeometry x="180" y="460" width="120" height="80" as="geometry" />
        </mxCell>
        <mxCell id="POsNqCVVr4HfNaQNB7_T-29" value="&amp;nbsp;Thêm, sửa, xóa SV" style="ellipse;whiteSpace=wrap;html=1;" vertex="1" parent="1">
          <mxGeometry x="100" y="110" width="120" height="80" as="geometry" />
        </mxCell>
        <mxCell id="POsNqCVVr4HfNaQNB7_T-31" value="" style="endArrow=none;html=1;rounded=0;entryX=0.986;entryY=0.687;entryDx=0;entryDy=0;exitX=0.25;exitY=0.1;exitDx=0;exitDy=0;exitPerimeter=0;entryPerimeter=0;" edge="1" parent="1" source="POsNqCVVr4HfNaQNB7_T-1" target="POsNqCVVr4HfNaQNB7_T-29">
          <mxGeometry width="50" height="50" relative="1" as="geometry">
            <mxPoint x="264.7" y="240" as="sourcePoint" />
            <mxPoint x="264.7" y="160" as="targetPoint" />
            <Array as="points" />
          </mxGeometry>
        </mxCell>
        <mxCell id="POsNqCVVr4HfNaQNB7_T-32" value="" style="endArrow=none;html=1;rounded=0;exitX=0.25;exitY=0.1;exitDx=0;exitDy=0;exitPerimeter=0;" edge="1" parent="1" source="POsNqCVVr4HfNaQNB7_T-1" target="POsNqCVVr4HfNaQNB7_T-24">
          <mxGeometry width="50" height="50" relative="1" as="geometry">
            <mxPoint x="295" y="215.36" as="sourcePoint" />
            <mxPoint x="136.43999999999994" y="220" as="targetPoint" />
            <Array as="points" />
          </mxGeometry>
        </mxCell>
        <mxCell id="POsNqCVVr4HfNaQNB7_T-33" value="" style="endArrow=none;html=1;rounded=0;entryX=0.028;entryY=0.647;entryDx=0;entryDy=0;exitX=0.75;exitY=0.1;exitDx=0;exitDy=0;exitPerimeter=0;entryPerimeter=0;" edge="1" parent="1" source="POsNqCVVr4HfNaQNB7_T-1" target="POsNqCVVr4HfNaQNB7_T-23">
          <mxGeometry width="50" height="50" relative="1" as="geometry">
            <mxPoint x="350" y="260" as="sourcePoint" />
            <mxPoint x="350" y="180" as="targetPoint" />
            <Array as="points" />
          </mxGeometry>
        </mxCell>
        <mxCell id="POsNqCVVr4HfNaQNB7_T-35" value="" style="endArrow=none;html=1;rounded=0;exitX=1;exitY=1;exitDx=0;exitDy=0;exitPerimeter=0;" edge="1" parent="1" source="POsNqCVVr4HfNaQNB7_T-7" target="POsNqCVVr4HfNaQNB7_T-25">
          <mxGeometry width="50" height="50" relative="1" as="geometry">
            <mxPoint x="90" y="290" as="sourcePoint" />
            <mxPoint x="140" y="240" as="targetPoint" />
          </mxGeometry>
        </mxCell>
        <mxCell id="POsNqCVVr4HfNaQNB7_T-36" value="" style="endArrow=none;html=1;rounded=0;exitX=1;exitY=1;exitDx=0;exitDy=0;exitPerimeter=0;entryX=0.427;entryY=0.006;entryDx=0;entryDy=0;entryPerimeter=0;" edge="1" parent="1" source="POsNqCVVr4HfNaQNB7_T-7" target="POsNqCVVr4HfNaQNB7_T-27">
          <mxGeometry width="50" height="50" relative="1" as="geometry">
            <mxPoint x="390" y="390" as="sourcePoint" />
            <mxPoint x="502" y="410" as="targetPoint" />
          </mxGeometry>
        </mxCell>
        <mxCell id="POsNqCVVr4HfNaQNB7_T-39" value="" style="endArrow=none;html=1;rounded=0;entryX=0;entryY=1;entryDx=0;entryDy=0;entryPerimeter=0;exitX=1;exitY=0;exitDx=0;exitDy=0;" edge="1" parent="1" source="POsNqCVVr4HfNaQNB7_T-26" target="POsNqCVVr4HfNaQNB7_T-8">
          <mxGeometry width="50" height="50" relative="1" as="geometry">
            <mxPoint x="90" y="290" as="sourcePoint" />
            <mxPoint x="140" y="240" as="targetPoint" />
          </mxGeometry>
        </mxCell>
        <mxCell id="POsNqCVVr4HfNaQNB7_T-40" value="" style="endArrow=none;html=1;rounded=0;entryX=0;entryY=1;entryDx=0;entryDy=0;entryPerimeter=0;exitX=0.5;exitY=0;exitDx=0;exitDy=0;" edge="1" parent="1" source="POsNqCVVr4HfNaQNB7_T-28" target="POsNqCVVr4HfNaQNB7_T-8">
          <mxGeometry width="50" height="50" relative="1" as="geometry">
            <mxPoint x="152" y="452" as="sourcePoint" />
            <mxPoint x="250" y="400" as="targetPoint" />
          </mxGeometry>
        </mxCell>
      </root>
    </mxGraphModel>
  </diagram>
  <diagram id="vqRESX0ZS-ZKTcjWFKhJ" name="Page-2">
    <mxGraphModel dx="1313" dy="653" grid="1" gridSize="10" guides="1" tooltips="1" connect="1" arrows="1" fold="1" page="1" pageScale="1" pageWidth="850" pageHeight="1100" math="0" shadow="0">
      <root>
        <mxCell id="0" />
        <mxCell id="1" parent="0" />
      </root>
    </mxGraphModel>
  </diagram>
</mxfile>
